<svg width="48" height="24" viewBox="0 0 48 24" fill="none" xmlns="http://www.w3.org/2000/svg">
<path d="M37.968 14.7697C36.2544 14.7697 34.8604 16.1638 34.8604 17.8774C34.8604 19.5909 36.2544 20.9851 37.968 20.9851C39.6816 20.9851 41.0757 19.5909 41.0757 17.8774C41.0758 16.1638 39.6816 14.7697 37.968 14.7697ZM37.968 19.5789C37.0298 19.5789 36.2666 18.8155 36.2666 17.8774C36.2666 16.9391 37.0299 16.1759 37.968 16.1759C38.9062 16.1759 39.6695 16.9392 39.6695 17.8774C39.6696 18.8156 38.9062 19.5789 37.968 19.5789Z" fill="#0033A0"/>
<path d="M7.9964 14.7697C6.28283 14.7697 4.88867 16.1638 4.88867 17.8774C4.88867 19.5909 6.28283 20.9851 7.9964 20.9851C9.70996 20.9851 11.1041 19.5909 11.1041 17.8774C11.1041 16.1638 9.70996 14.7697 7.9964 14.7697ZM7.9964 19.5789C7.05815 19.5789 6.29493 18.8155 6.29493 17.8774C6.29493 16.9391 7.05824 16.1759 7.9964 16.1759C8.93456 16.1759 9.69787 16.9392 9.69787 17.8774C9.69787 18.8156 8.93465 19.5789 7.9964 19.5789Z" fill="#0033A0"/>
<path d="M0 17.5261V18.2865C0 19.136 0.691126 19.8272 1.54078 19.8272H2.84147C3.63085 21.9069 5.64329 23.3897 7.99642 23.3897C10.3496 23.3897 12.3621 21.907 13.1514 19.8272H20.0095C20.3979 19.8272 20.7126 19.5124 20.7126 19.124C20.7126 18.7357 20.3979 18.4209 20.0095 18.4209H13.4818C13.5162 18.0724 13.5168 17.7267 13.4874 17.3915H32.4771C32.4481 17.7216 32.4479 18.0722 32.4827 18.4209H23.2908C22.9024 18.4209 22.5877 18.7357 22.5877 19.124C22.5877 19.5124 22.9024 19.8272 23.2908 19.8272H32.8131C33.6025 21.9069 35.6149 23.3897 37.9681 23.3897C40.3213 23.3897 42.3337 21.907 43.1231 19.8272H46.4593C47.3089 19.8272 48 19.136 48 18.2865V17.5261C48 16.916 47.6427 16.3893 47.1272 16.1398V13.9633C47.1272 11.7378 45.5738 9.78831 43.3473 9.33437L36.3713 7.91124C36.3165 7.90008 36.2622 7.88537 36.2082 7.86924C36.0012 7.0373 35.2501 6.41827 34.355 6.41827H34.2653L32.1119 4.5638C31.8175 4.31039 31.3736 4.34348 31.1203 4.63777C30.8669 4.93205 30.8999 5.37596 31.1942 5.62936L32.3823 6.65255C32.0482 6.83583 31.7733 7.12196 31.603 7.44821L28.3427 4.64048C27.5992 4.00017 26.7043 3.54604 25.7546 3.32714C20.3887 2.08992 14.3701 2.21826 8.92417 4.06139C7.6188 4.50323 6.49192 5.38167 5.75092 6.53518C5.4602 6.9878 5.54823 7.59643 5.95529 7.95099L8.84139 10.465C9.04089 10.639 9.29664 10.7348 9.56168 10.7348H31.9454C32.302 11.0927 32.7845 11.298 33.2988 11.298H34.3553C35.4065 11.298 36.267 10.4432 36.267 9.38631V9.32528L42.4263 10.5818V12.6247C42.4263 13.6984 43.2998 14.572 44.3736 14.572H45.7212V15.9856H43.1474C42.3558 13.8106 40.2826 12.3652 37.9684 12.3652C35.6637 12.3652 33.5841 13.8021 32.7894 15.9856H13.1754C12.3795 13.7988 10.2972 12.3652 7.99642 12.3652C5.69514 12.3652 3.61313 13.7992 2.81747 15.9856H2.07779L1.90782 15.3625C1.80882 14.9995 1.75866 14.6247 1.75866 14.2485V13.7716H2.46544C3.51948 13.7716 4.37701 12.914 4.37701 11.8599V11.2403C4.37701 10.2405 3.60516 9.41893 2.62622 9.33681L4.81857 5.92992C5.69523 4.56764 7.02676 3.53011 8.56774 3.00858C15.8838 0.532445 22.6324 1.46676 26.0041 2.24404C26.995 2.47261 27.9102 2.90198 28.724 3.52026C29.0333 3.75529 29.4744 3.69492 29.7092 3.38583C29.9442 3.07664 29.884 2.63554 29.5747 2.40061C28.6014 1.66101 27.5063 1.14735 26.3199 0.87379C22.8031 0.0629448 15.762 -0.910932 8.11689 1.67657C6.27545 2.29973 4.68423 3.53995 3.63601 5.16886L1.24969 8.87724C0.666564 9.78353 0.352407 10.8467 0.352407 11.9299V13.0683V14.2484C0.352407 14.7496 0.419251 15.2489 0.551064 15.7324L0.690283 16.2427C0.274782 16.5187 0 16.9908 0 17.5261H0ZM27.4248 5.70596L31.387 9.11799V9.32846H22.3533V4.15758C23.5677 4.30711 24.6135 4.50708 25.4386 4.6973C26.1669 4.86511 26.8536 5.21395 27.4248 5.70596ZM7.08695 7.07171C8.13873 5.62917 9.55258 5.25492 11.5389 4.76199L12.3133 9.32846H9.67764L7.08695 7.07171ZM13.7397 9.32846L12.9135 4.45748C17.1198 3.6368 20.329 4.00945 20.947 4.01658V9.32846H13.7397ZM34.355 9.89162H33.2986C33.0017 9.89162 32.7932 9.6399 32.7932 9.38621C32.7932 8.99603 32.7932 8.71927 32.7932 8.32984C32.7932 8.05121 33.0198 7.82443 33.2986 7.82443H34.355C34.6338 7.82443 34.8604 8.05112 34.8604 8.32984V9.38621C34.8604 9.66484 34.6338 9.89162 34.355 9.89162ZM37.9681 21.9834C35.6862 21.9834 33.862 20.1221 33.862 17.8774C33.862 15.6423 35.6798 13.7713 37.9681 13.7713C40.26 13.7713 42.0742 15.6453 42.0742 17.8774C42.0742 20.1234 40.2473 21.9834 37.9681 21.9834ZM43.8322 12.6245V10.9705C44.7227 11.3978 45.3828 12.2072 45.6222 13.1656H44.3734C44.075 13.1656 43.8322 12.9228 43.8322 12.6245ZM46.4241 17.3916H46.4593C46.5334 17.3916 46.5938 17.452 46.5938 17.5262V18.2866C46.5938 18.3607 46.5334 18.421 46.4593 18.421H43.4535C43.4892 18.0635 43.4875 17.7151 43.4591 17.3916H46.4241ZM7.99642 21.9834C5.71454 21.9834 3.89035 20.1221 3.89035 17.8774C3.89035 15.6162 5.73245 13.7713 7.99642 13.7713C10.2547 13.7713 12.1025 15.6104 12.1025 17.8774C12.1025 20.129 10.2712 21.9834 7.99642 21.9834ZM2.50547 17.3916C2.47585 17.7288 2.47716 18.0815 2.5111 18.421H1.54078C1.46663 18.421 1.40625 18.3606 1.40625 18.2866V17.5261C1.40625 17.4519 1.46663 17.3915 1.54078 17.3915H2.50547V17.3916ZM2.97076 11.24V11.8596C2.97076 12.1382 2.74407 12.365 2.46544 12.365H1.75875C1.77141 12.1073 1.70138 11.5119 1.93069 10.7347H2.46554C2.74416 10.7347 2.97076 10.9614 2.97076 11.24Z" fill="#0033A0"/>
<path d="M24.6209 13.397C25.0093 13.397 25.324 13.0822 25.324 12.6938C25.324 12.3055 25.0093 11.9907 24.6209 11.9907H23.7397C23.3513 11.9907 23.0366 12.3055 23.0366 12.6938C23.0366 13.0822 23.3513 13.397 23.7397 13.397H24.6209Z" fill="#0033A0"/>
<path d="M15.8094 13.397C16.1978 13.397 16.5125 13.0822 16.5125 12.6938C16.5125 12.3055 16.1978 11.9907 15.8094 11.9907H14.9282C14.5398 11.9907 14.2251 12.3055 14.2251 12.6938C14.2251 13.0822 14.5398 13.397 14.9282 13.397H15.8094Z" fill="#0033A0"/>
</svg>
